<svg width="25" height="25" viewBox="0 0 25 25" fill="none" xmlns="http://www.w3.org/2000/svg">
<path fill-rule="evenodd" clip-rule="evenodd" d="M1.4075 4.26246C0.630119 3.47776 0.630119 2.20551 1.4075 1.4208C2.18487 0.6361 3.44525 0.6361 4.22263 1.4208L12.513 9.78934L20.8035 1.4208C21.5808 0.6361 22.8412 0.6361 23.6186 1.4208C24.396 2.20551 24.396 3.47776 23.6186 4.26246L15.3282 12.631L23.3788 20.7575C24.1562 21.5422 24.1562 22.8144 23.3788 23.5991C22.6014 24.3838 21.341 24.3838 20.5637 23.5991L12.513 15.4727L4.46242 23.5991C3.68504 24.3838 2.42467 24.3838 1.64729 23.5991C0.869913 22.8144 0.869912 21.5422 1.64729 20.7575L9.69791 12.631L1.4075 4.26246Z" fill="black" fill-opacity="0.25"/>
</svg>
