<svg width="70" height="71" viewBox="0 0 70 71" fill="none" xmlns="http://www.w3.org/2000/svg">
<path fill-rule="evenodd" clip-rule="evenodd" d="M35.3776 0.106595C41.6172 -0.14073 48.1529 -0.212582 53.5832 2.87285C59.0268 5.96588 62.438 11.5678 65.3287 17.1245C68.1336 22.5164 69.9813 28.3512 69.9999 34.43C70.0185 40.5196 68.2704 46.4088 65.4346 51.7967C62.5248 57.3251 58.7787 62.5034 53.4824 65.8125C48.0975 69.177 41.7204 70.8397 35.3776 70.5764C29.1613 70.3183 23.4114 67.6192 18.1197 64.3444C12.9384 61.138 8.32831 57.097 5.17102 51.8831C1.97424 46.6041 -0.112529 40.6017 0.00469706 34.43C0.120881 28.3132 2.69347 22.6089 5.82684 17.3558C8.92862 12.1556 12.7587 7.33515 17.9861 4.28386C23.2252 1.22573 29.3172 0.346818 35.3776 0.106595Z" fill="#EFBF92"/>
<path d="M27.0778 7.7938C27.2828 6.76451 29.9318 6.65328 30.9061 6.63792C31.6366 6.63792 32.1427 6.979 32.8203 6.979C33.1459 6.979 34.1699 7.45733 34.4073 7.68643C34.6357 7.90692 34.4781 8.03952 34.8817 8.12857C35.444 8.25261 36.2069 8.44215 36.2069 8.93705C36.2069 10.2615 36.0152 11.4556 35.2907 12.7016C34.6935 13.7286 33.813 13.9959 32.444 14.1417C31.6943 14.2215 31.1146 14.4828 30.3499 14.4828C28.8483 14.4828 27.4052 14.4245 26.0471 13.9143C24.3791 13.2878 26.1633 10.9878 26.4888 10.0487C26.7446 9.31061 26.9273 8.54888 27.0778 7.7938Z" fill="#4F2F10"/>
<path d="M53.9665 25.8372C54.0121 24.5165 55.4885 24.372 56.6465 24.1379C57.8681 24.1379 60.0417 24.6196 60.2876 26.2816C60.4079 27.0949 60.3011 28.0118 60.3011 28.8306C60.3011 29.8153 59.3235 30.0292 58.4874 30.4906C57.7309 30.9081 56.5802 30.7517 55.672 30.7259C55.2713 30.7145 53.7549 29.4286 53.7229 29.0266C53.6361 27.9373 53.9294 26.9118 53.9665 25.8372Z" fill="#4F2F10"/>
<path d="M51.91 40.3719C51.9378 39.0633 53.2734 38.7122 54.2639 38.1943C55.1442 37.734 56.96 38.2555 57.5004 38.7973C58.0408 39.3391 59.1745 40.4635 59.56 40.908C60.0937 41.5232 60.7642 45.7099 60.0014 46.3353C59.3938 46.8334 59.8656 48.4936 58.8244 48.7307C57.6277 49.0032 55.691 48.8702 54.5581 48.5799C52.373 48.0201 51.91 46.7978 51.91 44.6602C51.91 43.2317 51.8797 41.7999 51.91 40.3719Z" fill="#4F2F10"/>
<path d="M19.7986 43.6974C20.8465 43.0651 22.8862 43.8112 23.9435 44.0177C24.8423 44.3167 26.0865 45.0622 26.7781 45.7524C27.3603 46.3336 27.1028 48.0805 27.0722 48.875C26.9005 53.3293 19.4017 52.4245 16.3623 52.4245C15.2809 52.4245 14.5955 52.3437 13.5946 51.9441C12.8343 51.6406 13.6291 49.618 13.969 49.1819C14.2581 48.811 14.8682 48.5038 15.2793 48.2878C16.1365 47.8375 16.5186 46.9353 17.2047 46.2995C18.0863 45.4825 18.7464 44.3324 19.7986 43.6974Z" fill="#4F2F10"/>
<path d="M40.829 59.8434C39.8635 58.5467 40.8742 56.2987 41.5462 55.232C42.0294 54.4651 44.5774 55.307 45.0753 55.4504C46.3734 55.8239 45.7379 57.4654 45.4579 58.4176C45.1934 59.3168 45.4257 59.2805 44.4887 59.8049C43.8618 60.1557 43.6294 60.3187 42.8693 60.3187C42.1258 60.3187 41.3274 60.5128 40.829 59.8434Z" fill="#4F2F10"/>
<path d="M15.2801 31.3469C14.9709 32.2707 14.2621 32.5119 13.3645 32.7004C13.209 32.7107 12.3216 32.3436 12.2247 32.2377C12.0029 31.995 11.8477 31.6686 11.6604 31.4638C11.1846 30.9435 11.6816 29.6546 11.9033 29.1953C12.5565 27.8416 13.4625 26.6955 14.5085 25.6266C15.0456 25.0778 15.5927 24.4717 16.0799 23.8792C16.3912 23.5007 16.8645 22.5275 17.454 22.5431C17.9989 22.5576 18.3842 23.9798 18.3983 24.3073C18.454 25.5965 17.4222 26.9891 16.8645 28.0986C16.3118 29.1982 15.6667 30.192 15.2801 31.3469Z" fill="#4F2F10"/>
<path d="M37.158 25.3448C39.7248 25.3448 42.0727 26.8273 44.0498 28.7328C44.0498 29.4223 44.0787 30.8833 43.9141 31.5326C43.5343 33.0306 42.0864 32.3657 40.948 32.5913C39.7325 32.8321 38.5168 32.7318 37.284 32.756C36.2046 32.7771 35.1941 33.1795 34.1046 33.1795C33.3439 33.1795 30.9291 33.3694 30.7993 32.109C30.6953 31.0994 30.9323 30.1125 31.6232 29.6386C32.9276 28.7438 34.2385 27.766 35.4713 26.733C35.9091 26.3661 36.5879 25.3448 37.158 25.3448Z" fill="#4F2F10"/>
<path d="M43.947 11.3947C43.5512 11.8228 42.8448 11.533 42.8448 12.4047C42.8448 12.4047 43.2396 13.9027 43.7919 14.1899C44.2066 14.4055 44.5779 14.3785 45.0323 14.3785C46.5447 14.3785 48.0281 14.1957 49.5247 14.0013C50.2677 13.9048 50.8344 13.8273 51.3937 13.314C51.653 13.0761 52.0668 12.8003 51.9217 12.4047C51.586 11.4892 50.0642 11.2779 49.2648 11.1433C48.426 11.002 47.7656 10.9377 47.0061 10.5399C46.3476 10.1949 45.7541 10.1452 45.1245 10.5147C44.683 10.7739 44.3014 11.0113 43.947 11.3947Z" fill="#4F2F10"/>
</svg>
