<svg width="25" height="26" viewBox="0 0 25 26" fill="none" xmlns="http://www.w3.org/2000/svg">
<path fill-rule="evenodd" clip-rule="evenodd" d="M12.6349 0.0380696C14.8633 -0.0502607 17.1975 -0.075922 19.1369 1.02602C21.081 2.13067 22.2993 4.13137 23.3317 6.11589C24.3334 8.04156 24.9933 10.1254 24.9999 12.2964C25.0066 14.4713 24.3823 16.5746 23.3695 18.4988C22.3303 20.4732 20.9924 22.3226 19.1009 23.5045C17.1777 24.7061 14.9001 25.2999 12.6349 25.2058C10.4147 25.1137 8.36121 24.1497 6.47133 22.9802C4.62087 21.835 2.9744 20.3918 1.84679 18.5297C0.705086 16.6443 -0.040189 14.5006 0.00167752 12.2964C0.0431718 10.1119 0.961953 8.07462 2.08101 6.19849C3.18879 4.34128 4.55667 2.6197 6.42359 1.52995C8.2947 0.43776 10.4704 0.123863 12.6349 0.0380696Z" fill="#EFBF92"/>
<path d="M9.67066 2.78348C9.74391 2.41588 10.6899 2.37615 11.0379 2.37067C11.2988 2.37067 11.4796 2.49248 11.7216 2.49248C11.8379 2.49248 12.2036 2.66331 12.2883 2.74513C12.3699 2.82388 12.3136 2.87124 12.4578 2.90304C12.6586 2.94734 12.9311 3.01503 12.9311 3.19178C12.9311 3.66481 12.8626 4.09126 12.6039 4.53625C12.3906 4.90303 12.0761 4.99851 11.5872 5.05058C11.3194 5.07909 11.1124 5.17239 10.8393 5.17239C10.303 5.17239 9.78761 5.15157 9.30255 4.96937C8.70686 4.7456 9.34408 3.92419 9.46031 3.58881C9.55167 3.3252 9.61693 3.05315 9.67066 2.78348Z" fill="#4F2F10"/>
<path d="M19.2737 9.22755C19.29 8.75587 19.8173 8.70427 20.2309 8.62067C20.6672 8.62067 21.4435 8.79267 21.5313 9.38628C21.5742 9.67671 21.5361 10.0042 21.5361 10.2966C21.5361 10.6483 21.187 10.7247 20.8883 10.8895C20.6182 11.0386 20.2072 10.9827 19.8828 10.9735C19.7397 10.9694 19.1982 10.5102 19.1867 10.3666C19.1557 9.9776 19.2605 9.61133 19.2737 9.22755Z" fill="#4F2F10"/>
<path d="M18.5394 14.4185C18.5493 13.9512 19.0263 13.8258 19.38 13.6408C19.6944 13.4764 20.3429 13.6627 20.5359 13.8562C20.7289 14.0497 21.1338 14.4512 21.2715 14.61C21.4621 14.8297 21.7016 16.325 21.4291 16.5483C21.2121 16.7262 21.3806 17.3191 21.0088 17.4038C20.5814 17.5011 19.8897 17.4536 19.4851 17.35C18.7047 17.15 18.5394 16.7135 18.5394 15.9501C18.5394 15.4399 18.5285 14.9285 18.5394 14.4185Z" fill="#4F2F10"/>
<path d="M7.07088 15.6062C7.44512 15.3804 8.1736 15.6468 8.5512 15.7206C8.87221 15.8274 9.31654 16.0936 9.56354 16.3401C9.7715 16.5477 9.67953 17.1716 9.6686 17.4553C9.60729 19.0461 6.92912 18.723 5.84364 18.723C5.45743 18.723 5.21264 18.6941 4.85517 18.5514C4.58362 18.443 4.86748 17.7207 4.98888 17.5649C5.09211 17.4325 5.31003 17.3227 5.45685 17.2456C5.76299 17.0848 5.89947 16.7626 6.14448 16.5355C6.45933 16.2437 6.6951 15.833 7.07088 15.6062Z" fill="#4F2F10"/>
<path d="M14.5818 21.3726C14.237 20.9095 14.598 20.1067 14.838 19.7257C15.0105 19.4518 15.9205 19.7525 16.0984 19.8037C16.562 19.9371 16.335 20.5234 16.235 20.8634C16.1405 21.1846 16.2235 21.1716 15.8889 21.3589C15.665 21.4842 15.582 21.5424 15.3105 21.5424C15.045 21.5424 14.7598 21.6117 14.5818 21.3726Z" fill="#4F2F10"/>
<path d="M5.45715 11.1954C5.34673 11.5253 5.0936 11.6114 4.77301 11.6787C4.71748 11.6824 4.40054 11.5513 4.36595 11.5135C4.28671 11.4268 4.2313 11.3102 4.1644 11.2371C3.99449 11.0513 4.17198 10.5909 4.25114 10.4269C4.48443 9.94344 4.80801 9.53414 5.1816 9.15238C5.37341 8.95637 5.5688 8.73991 5.74279 8.52832C5.85396 8.39313 6.023 8.04556 6.23354 8.05114C6.42816 8.0563 6.56574 8.56422 6.5708 8.68121C6.59068 9.14163 6.22218 9.63899 6.02301 10.0352C5.82561 10.428 5.59521 10.7829 5.45715 11.1954Z" fill="#4F2F10"/>
<path d="M13.2707 9.05176C14.1874 9.05176 15.0259 9.58122 15.732 10.2617C15.732 10.508 15.7423 11.0298 15.6835 11.2617C15.5479 11.7967 15.0308 11.5592 14.6242 11.6398C14.1901 11.7258 13.756 11.69 13.3157 11.6986C12.9302 11.7061 12.5693 11.8498 12.1802 11.8498C11.9085 11.8498 11.0461 11.9177 10.9997 11.4675C10.9626 11.107 11.0472 10.7545 11.2939 10.5852C11.7598 10.2657 12.228 9.91647 12.6683 9.54751C12.8246 9.4165 13.0671 9.05176 13.2707 9.05176Z" fill="#4F2F10"/>
<path d="M15.6954 4.06957C15.554 4.22246 15.3018 4.11896 15.3018 4.43027C15.3018 4.43027 15.4427 4.96526 15.64 5.06784C15.7881 5.14486 15.9207 5.13519 16.083 5.13519C16.6231 5.13519 17.1529 5.0699 17.6874 5.00049C17.9528 4.96602 18.1552 4.93834 18.3549 4.75504C18.4475 4.67005 18.5953 4.57158 18.5435 4.43027C18.4236 4.10333 17.8801 4.02785 17.5946 3.97978C17.295 3.92933 17.0592 3.90634 16.7879 3.76426C16.5527 3.64107 16.3408 3.6233 16.1159 3.75528C15.9582 3.84784 15.822 3.93264 15.6954 4.06957Z" fill="#4F2F10"/>
</svg>
